# Blender v2.83.0 OBJ File: 'arrows.blend'
# www.blender.org
mtllib arrows.mtl
o Cylinder
v 0.000000 -0.002459 -0.100000
v 0.000000 0.997541 -0.100000
v 0.086603 -0.002459 -0.050000
v 0.086603 0.997541 -0.050000
v 0.086603 -0.002459 0.050000
v 0.086603 0.997541 0.050000
v -0.000000 -0.002459 0.100000
v -0.000000 0.997541 0.100000
v -0.086603 -0.002459 0.050000
v -0.086603 0.997541 0.050000
v -0.086603 -0.002459 -0.050000
v -0.086603 0.997541 -0.050000
vt 1.000000 0.500000
vt 1.000000 1.000000
vt 0.833333 1.000000
vt 0.833333 0.500000
vt 0.666667 1.000000
vt 0.666667 0.500000
vt 0.500000 1.000000
vt 0.500000 0.500000
vt 0.333333 1.000000
vt 0.333333 0.500000
vt 0.457846 0.370000
vt 0.250000 0.490000
vt 0.042154 0.370000
vt 0.042154 0.130000
vt 0.250000 0.010000
vt 0.457846 0.130000
vt 0.166667 1.000000
vt 0.166667 0.500000
vt -0.000000 1.000000
vt -0.000000 0.500000
vt 0.750000 0.490000
vt 0.957846 0.370000
vt 0.957846 0.130000
vt 0.750000 0.010000
vt 0.542154 0.130000
vt 0.542154 0.370000
vn 0.5000 0.0000 -0.8660
vn 1.0000 0.0000 0.0000
vn 0.5000 0.0000 0.8660
vn -0.5000 0.0000 0.8660
vn 0.0000 1.0000 -0.0000
vn -1.0000 0.0000 0.0000
vn -0.5000 0.0000 -0.8660
vn 0.0000 -1.0000 0.0000
g Cylinder_Cylinder_Material.004
usemtl Material.004
s off
f 1/1/1 2/2/1 4/3/1 3/4/1
f 3/4/2 4/3/2 6/5/2 5/6/2
f 5/6/3 6/5/3 8/7/3 7/8/3
f 7/8/4 8/7/4 10/9/4 9/10/4
f 4/11/5 2/12/5 12/13/5 10/14/5 8/15/5 6/16/5
f 9/10/6 10/9/6 12/17/6 11/18/6
f 11/18/7 12/17/7 2/19/7 1/20/7
f 1/21/8 3/22/8 5/23/8 7/24/8 9/25/8 11/26/8
o Cone
v 0.000000 0.987541 -0.220000
v 0.190526 0.987541 -0.110000
v 0.190526 0.987541 0.110000
v -0.000000 0.987541 0.220000
v 0.000000 1.367541 -0.000000
v -0.190526 0.987541 0.110000
v -0.190526 0.987541 -0.110000
vt 0.250000 0.490000
vt 0.250000 0.250000
vt 0.457846 0.370000
vt 0.457846 0.130000
vt 0.250000 0.010000
vt 0.042154 0.130000
vt 0.042154 0.370000
vt 0.750000 0.490000
vt 0.957846 0.370000
vt 0.957846 0.130000
vt 0.750000 0.010000
vt 0.542154 0.130000
vt 0.542154 0.370000
vn 0.4470 0.4482 -0.7742
vn 0.8939 0.4482 0.0000
vn 0.4470 0.4482 0.7742
vn -0.4470 0.4482 0.7742
vn -0.8939 0.4482 0.0000
vn -0.4470 0.4482 -0.7742
vn 0.0000 -1.0000 -0.0000
g Cone_Cone_Material.003
usemtl Material.003
s off
f 13/27/9 17/28/9 14/29/9
f 14/29/10 17/28/10 15/30/10
f 15/30/11 17/28/11 16/31/11
f 16/31/12 17/28/12 18/32/12
f 18/32/13 17/28/13 19/33/13
f 19/33/14 17/28/14 13/27/14
f 13/34/15 14/35/15 15/36/15 16/37/15 18/38/15 19/39/15
o Cylinder.001
v 0.008142 0.098178 0.000970
v -0.991749 0.098178 -0.013749
v 0.006868 0.048178 0.087563
v -0.993024 0.048178 0.072844
v 0.006868 -0.051822 0.087563
v -0.993024 -0.051822 0.072844
v 0.008142 -0.101822 0.000970
v -0.991749 -0.101822 -0.013749
v 0.009417 -0.051822 -0.085624
v -0.990475 -0.051822 -0.100342
v 0.009417 0.048178 -0.085624
v -0.990475 0.048178 -0.100342
vt 1.000000 0.500000
vt 1.000000 1.000000
vt 0.833333 1.000000
vt 0.833333 0.500000
vt 0.666667 1.000000
vt 0.666667 0.500000
vt 0.500000 1.000000
vt 0.500000 0.500000
vt 0.333333 1.000000
vt 0.333333 0.500000
vt 0.457846 0.370000
vt 0.250000 0.490000
vt 0.042154 0.370000
vt 0.042154 0.130000
vt 0.250000 0.010000
vt 0.457846 0.130000
vt 0.166667 1.000000
vt 0.166667 0.500000
vt -0.000000 1.000000
vt -0.000000 0.500000
vt 0.750000 0.490000
vt 0.957846 0.370000
vt 0.957846 0.130000
vt 0.750000 0.010000
vt 0.542154 0.130000
vt 0.542154 0.370000
vn -0.0074 0.8660 0.4999
vn -0.0147 -0.0000 0.9999
vn -0.0074 -0.8660 0.4999
vn 0.0074 -0.8660 -0.4999
vn -0.9999 0.0000 -0.0147
vn 0.0147 0.0000 -0.9999
vn 0.0074 0.8660 -0.4999
vn 0.9999 -0.0000 0.0147
g Cylinder.001_Cylinder.001_Material.002
usemtl Material.002
s off
f 20/40/16 21/41/16 23/42/16 22/43/16
f 22/43/17 23/42/17 25/44/17 24/45/17
f 24/45/18 25/44/18 27/46/18 26/47/18
f 26/47/19 27/46/19 29/48/19 28/49/19
f 23/50/20 21/51/20 31/52/20 29/53/20 27/54/20 25/55/20
f 28/49/21 29/48/21 31/56/21 30/57/21
f 30/57/22 31/56/22 21/58/22 20/59/22
f 20/60/23 22/61/23 24/62/23 26/63/23 28/64/23 30/65/23
o Cone.001
v -0.981750 0.218178 -0.013602
v -0.984555 0.108178 0.176903
v -0.984555 -0.111822 0.176903
v -0.981750 -0.221822 -0.013602
v -1.361709 -0.001822 -0.019195
v -0.978946 -0.111822 -0.204107
v -0.978946 0.108178 -0.204107
vt 0.250000 0.490000
vt 0.250000 0.250000
vt 0.457846 0.370000
vt 0.457846 0.130000
vt 0.250000 0.010000
vt 0.042154 0.130000
vt 0.042154 0.370000
vt 0.750000 0.490000
vt 0.957846 0.370000
vt 0.957846 0.130000
vt 0.750000 0.010000
vt 0.542154 0.130000
vt 0.542154 0.370000
vn -0.4547 0.7742 0.4403
vn -0.4613 0.0000 0.8872
vn -0.4547 -0.7742 0.4403
vn -0.4416 -0.7742 -0.4535
vn -0.4350 0.0000 -0.9004
vn -0.4416 0.7742 -0.4535
vn 0.9999 0.0000 0.0147
g Cone.001_Cone.001_Material.001
usemtl Material.001
s off
f 32/66/24 36/67/24 33/68/24
f 33/68/25 36/67/25 34/69/25
f 34/69/26 36/67/26 35/70/26
f 35/70/27 36/67/27 37/71/27
f 37/71/28 36/67/28 38/72/28
f 38/72/29 36/67/29 32/66/29
f 32/73/30 33/74/30 34/75/30 35/76/30 37/77/30 38/78/30
o Cylinder.002
v 0.004768 0.098178 -0.004344
v -0.009951 0.098178 0.995547
v 0.091361 0.048178 -0.003070
v 0.076642 0.048178 0.996822
v 0.091361 -0.051822 -0.003070
v 0.076642 -0.051822 0.996822
v 0.004768 -0.101822 -0.004344
v -0.009951 -0.101822 0.995547
v -0.081825 -0.051822 -0.005619
v -0.096544 -0.051822 0.994273
v -0.081825 0.048178 -0.005619
v -0.096544 0.048178 0.994273
vt 1.000000 0.500000
vt 1.000000 1.000000
vt 0.833333 1.000000
vt 0.833333 0.500000
vt 0.666667 1.000000
vt 0.666667 0.500000
vt 0.500000 1.000000
vt 0.500000 0.500000
vt 0.333333 1.000000
vt 0.333333 0.500000
vt 0.457846 0.370000
vt 0.250000 0.490000
vt 0.042154 0.370000
vt 0.042154 0.130000
vt 0.250000 0.010000
vt 0.457846 0.130000
vt 0.166667 1.000000
vt 0.166667 0.500000
vt -0.000000 1.000000
vt -0.000000 0.500000
vt 0.750000 0.490000
vt 0.957846 0.370000
vt 0.957846 0.130000
vt 0.750000 0.010000
vt 0.542154 0.130000
vt 0.542154 0.370000
vn 0.4999 0.8660 0.0074
vn 0.9999 -0.0000 0.0147
vn 0.4999 -0.8660 0.0074
vn -0.4999 -0.8660 -0.0074
vn -0.0147 0.0000 0.9999
vn -0.9999 0.0000 -0.0147
vn -0.4999 0.8660 -0.0074
vn 0.0147 -0.0000 -0.9999
g Cylinder.002_Cylinder.002_Material.005
usemtl Material.005
s off
f 39/79/31 40/80/31 42/81/31 41/82/31
f 41/82/32 42/81/32 44/83/32 43/84/32
f 43/84/33 44/83/33 46/85/33 45/86/33
f 45/86/34 46/85/34 48/87/34 47/88/34
f 42/89/35 40/90/35 50/91/35 48/92/35 46/93/35 44/94/35
f 47/88/36 48/87/36 50/95/36 49/96/36
f 49/96/37 50/95/37 40/97/37 39/98/37
f 39/99/38 41/100/38 43/101/38 45/102/38 47/103/38 49/104/38
o Cone.002
v -0.009804 0.218178 0.985548
v 0.180701 0.108178 0.988353
v 0.180701 -0.111822 0.988353
v -0.009804 -0.221822 0.985548
v -0.015397 -0.001822 1.365507
v -0.200309 -0.111822 0.982744
v -0.200309 0.108178 0.982744
vt 0.250000 0.490000
vt 0.250000 0.250000
vt 0.457846 0.370000
vt 0.457846 0.130000
vt 0.250000 0.010000
vt 0.042154 0.130000
vt 0.042154 0.370000
vt 0.750000 0.490000
vt 0.957846 0.370000
vt 0.957846 0.130000
vt 0.750000 0.010000
vt 0.542154 0.130000
vt 0.542154 0.370000
vn 0.4403 0.7742 0.4547
vn 0.8872 -0.0000 0.4613
vn 0.4403 -0.7742 0.4547
vn -0.4535 -0.7742 0.4416
vn -0.9004 0.0000 0.4350
vn -0.4535 0.7742 0.4416
vn 0.0147 -0.0000 -0.9999
g Cone.002_Cone.002_Material.006
usemtl Material.006
s off
f 51/105/39 55/106/39 52/107/39
f 52/107/40 55/106/40 53/108/40
f 53/108/41 55/106/41 54/109/41
f 54/109/42 55/106/42 56/110/42
f 56/110/43 55/106/43 57/111/43
f 57/111/44 55/106/44 51/105/44
f 51/112/45 52/113/45 53/114/45 54/115/45 56/116/45 57/117/45
